<svg width="38" height="39" viewBox="0 0 38 39" fill="none" xmlns="http://www.w3.org/2000/svg">
<path d="M20.6253 1.5H16.6253C14.4162 1.5 12.6253 3.29086 12.6253 5.5C12.6253 7.10342 10.8896 8.10556 9.50096 7.30385C7.58779 6.19928 5.14143 6.85478 4.03686 8.76795L2.03686 12.232C0.93229 14.1452 1.58779 16.5916 3.50096 17.6962C4.88955 18.4979 4.8895 20.5021 3.50091 21.3038C1.58774 22.4084 0.932241 24.8548 2.03681 26.7679L4.03681 30.232C5.14138 32.1452 7.58774 32.8007 9.50091 31.6961C10.8895 30.8944 12.6253 31.8966 12.6253 33.5C12.6253 35.7091 14.4162 37.5 16.6253 37.5H20.6253C22.8345 37.5 24.6253 35.7091 24.6253 33.5C24.6253 31.8966 26.3611 30.8944 27.7497 31.6962C29.6628 32.8007 32.1092 32.1452 33.2138 30.2321L35.2138 26.768C36.3183 24.8548 35.6628 22.4084 33.7497 21.3038C32.3611 20.5021 32.361 18.4978 33.7496 17.6961C35.6628 16.5916 36.3183 14.1452 35.2137 12.232L33.2137 8.76793C32.1092 6.85476 29.6628 6.19926 27.7496 7.30383C26.361 8.10553 24.6253 7.10339 24.6253 5.5C24.6253 3.29086 22.8345 1.5 20.6253 1.5Z" stroke="#7C96AB" stroke-width="3" stroke-linecap="round" stroke-linejoin="round"/>
<path d="M22.6253 19.5C22.6253 21.7091 20.8345 23.5 18.6253 23.5C16.4162 23.5 14.6253 21.7091 14.6253 19.5C14.6253 17.2909 16.4162 15.5 18.6253 15.5C20.8345 15.5 22.6253 17.2909 22.6253 19.5Z" stroke="#7C96AB" stroke-width="3" stroke-linecap="round" stroke-linejoin="round"/>
</svg>
