<svg width="44" height="48" viewBox="0 0 44 48" fill="none" xmlns="http://www.w3.org/2000/svg">
<path d="M8.76343 33.0024L9.30071 33.5257H9.30071L8.76343 33.0024ZM35.2368 33.0024L34.6995 33.5257L34.6995 33.5257L35.2368 33.0024ZM22.7501 7C22.7501 6.58579 22.4143 6.25 22.0001 6.25C21.5859 6.25 21.2501 6.58579 21.2501 7H22.7501ZM11.7501 27.3551V22H10.2501V27.3551H11.7501ZM32.2501 22V27.3551H33.7501V22H32.2501ZM18.3334 35.6029H9.98146V37.1029H18.3334V35.6029ZM17.5834 36.3529V38H19.0834V36.3529H17.5834ZM34.0188 35.6029H25.6668V37.1029H34.0188V35.6029ZM25.6668 35.6029H18.3334V37.1029H25.6668V35.6029ZM26.4168 38V36.3529H24.9168V38H26.4168ZM22.0001 42.75C24.4995 42.75 26.4168 40.5606 26.4168 38H24.9168C24.9168 39.8577 23.5508 41.25 22.0001 41.25V42.75ZM17.5834 38C17.5834 40.5606 19.5008 42.75 22.0001 42.75V41.25C20.4494 41.25 19.0834 39.8577 19.0834 38H17.5834ZM8.22615 32.4791C7.41195 33.3151 7.29059 34.4664 7.62456 35.3851C7.95918 36.3056 8.79903 37.1029 9.98146 37.1029V35.6029C9.55449 35.6029 9.19934 35.3267 9.0343 34.8727C8.86862 34.4169 8.94295 33.893 9.30071 33.5257L8.22615 32.4791ZM34.6995 33.5257C35.0573 33.893 35.1316 34.4169 34.9659 34.8727C34.8009 35.3267 34.4457 35.6029 34.0188 35.6029V37.1029C35.2012 37.1029 36.041 36.3056 36.3757 35.3851C36.7096 34.4664 36.5883 33.3151 35.7741 32.4791L34.6995 33.5257ZM32.2501 27.3551C32.2501 29.6791 33.1291 31.9132 34.6995 33.5257L35.7741 32.4791C34.4898 31.1605 33.7501 29.3078 33.7501 27.3551H32.2501ZM22.0001 10.75C27.6009 10.75 32.2501 15.724 32.2501 22H33.7501C33.7501 15.0211 28.5496 9.25 22.0001 9.25V10.75ZM11.7501 22C11.7501 15.724 16.3993 10.75 22.0001 10.75V9.25C15.4507 9.25 10.2501 15.0211 10.2501 22H11.7501ZM10.2501 27.3551C10.2501 29.3078 9.51041 31.1605 8.22615 32.4791L9.30071 33.5257C10.8712 31.9132 11.7501 29.6791 11.7501 27.3551H10.2501ZM22.7501 10V7H21.2501V10H22.7501Z" fill="#363538"/>
</svg>
