<svg width="24" height="24" viewBox="0 0 24 24" fill="none" xmlns="http://www.w3.org/2000/svg">
<path d="M12 10.25C10.2051 10.25 8.75 8.79493 8.75 7H7.25C7.25 9.62335 9.37665 11.75 12 11.75V10.25ZM8.75 7C8.75 5.20507 10.2051 3.75 12 3.75V2.25C9.37665 2.25 7.25 4.37665 7.25 7H8.75ZM12 3.75C13.7949 3.75 15.25 5.20507 15.25 7H16.75C16.75 4.37665 14.6234 2.25 12 2.25V3.75ZM15.25 7C15.25 8.79493 13.7949 10.25 12 10.25V11.75C14.6234 11.75 16.75 9.62335 16.75 7H15.25ZM5.75 18V17H4.25V18H5.75ZM8 14.75H16V13.25H8V14.75ZM18.25 17V18H19.75V17H18.25ZM16 20.25H8V21.75H16V20.25ZM18.25 18C18.25 19.2426 17.2426 20.25 16 20.25V21.75C18.0711 21.75 19.75 20.0711 19.75 18H18.25ZM16 14.75C17.2426 14.75 18.25 15.7574 18.25 17H19.75C19.75 14.9289 18.0711 13.25 16 13.25V14.75ZM5.75 17C5.75 15.7574 6.75736 14.75 8 14.75V13.25C5.92893 13.25 4.25 14.9289 4.25 17H5.75ZM4.25 18C4.25 20.0711 5.92893 21.75 8 21.75V20.25C6.75736 20.25 5.75 19.2426 5.75 18H4.25Z" fill="#363538"/>
</svg>
