<svg width="48" height="48" viewBox="0 0 48 48" fill="none" xmlns="http://www.w3.org/2000/svg">
<path d="M32.7511 10.8421C32.034 10.4273 31.1164 10.6723 30.7016 11.3894C30.2868 12.1065 30.5318 13.0241 31.2489 13.4389L32.7511 10.8421ZM16.7511 13.4389C17.4682 13.0241 17.7132 12.1065 17.2984 11.3894C16.8836 10.6723 15.966 10.4273 15.2489 10.8421L16.7511 13.4389ZM25.5 6C25.5 5.17157 24.8284 4.5 24 4.5C23.1716 4.5 22.5 5.17157 22.5 6H25.5ZM22.5 22C22.5 22.8284 23.1716 23.5 24 23.5C24.8284 23.5 25.5 22.8284 25.5 22H22.5ZM24 40.5C15.9919 40.5 9.5 34.0081 9.5 26H6.5C6.5 35.665 14.335 43.5 24 43.5V40.5ZM38.5 26C38.5 34.0081 32.0081 40.5 24 40.5V43.5C33.665 43.5 41.5 35.665 41.5 26H38.5ZM31.2489 13.4389C35.5869 15.9483 38.5 20.6348 38.5 26H41.5C41.5 19.5206 37.9779 13.8657 32.7511 10.8421L31.2489 13.4389ZM9.5 26C9.5 20.6348 12.4131 15.9483 16.7511 13.4389L15.2489 10.8421C10.0221 13.8657 6.5 19.5206 6.5 26H9.5ZM22.5 6V22H25.5V6H22.5Z" fill="#7C96AB"/>
</svg>
