<svg width="20" height="18" viewBox="0 0 20 18" fill="none" xmlns="http://www.w3.org/2000/svg">
<path d="M10.3255 5.91445C11.7357 6.06273 12.862 7.16351 13.0495 8.56163M7.70656 6.92308C7.21934 7.46744 6.92308 8.1863 6.92308 8.97436C6.92308 10.6737 8.30066 12.0513 10 12.0513C10.7881 12.0513 11.5069 11.755 12.0513 11.2678M4.35897 3.56091C2.17535 5.03586 0.769231 7.17959 0.769231 8.97436C0.769231 12.0513 4.90199 16.1538 10 16.1538C12.0074 16.1538 13.865 15.5178 15.3797 14.5587M6.89242 2.30769C7.86347 1.98254 8.90966 1.79487 10 1.79487C15.098 1.79487 19.2308 5.89744 19.2308 8.97436C19.2308 10.117 18.6608 11.4012 17.6831 12.5641M18.2051 17.1795L1.79487 0.769231" stroke="#363538" stroke-width="1.5" stroke-linecap="round" stroke-linejoin="round"/>
</svg>
