<svg width="44" height="44" viewBox="0 0 44 44" fill="none" xmlns="http://www.w3.org/2000/svg">
<path d="M8.20943 26.8598L8.94157 26.6971L8.20943 26.8598ZM6.98721 21.3598L6.25507 21.5225L6.98721 21.3598ZM34.2756 10.9574L35.0169 11.0714V11.0714L34.2756 10.9574ZM31.884 26.503L31.1427 26.3889L31.884 26.503ZM38.4998 8.08334C38.9141 8.08334 39.2498 7.74756 39.2498 7.33334C39.2498 6.91913 38.9141 6.58334 38.4998 6.58334V8.08334ZM27.6665 36.2083C27.6665 36.5535 27.3867 36.8333 27.0415 36.8333V38.3333C28.2151 38.3333 29.1665 37.3819 29.1665 36.2083H27.6665ZM27.0415 36.8333C26.6963 36.8333 26.4165 36.5535 26.4165 36.2083H24.9165C24.9165 37.3819 25.8679 38.3333 27.0415 38.3333V36.8333ZM26.4165 36.2083C26.4165 35.8632 26.6963 35.5833 27.0415 35.5833V34.0833C25.8679 34.0833 24.9165 35.0347 24.9165 36.2083H26.4165ZM27.0415 35.5833C27.3867 35.5833 27.6665 35.8632 27.6665 36.2083H29.1665C29.1665 35.0347 28.2151 34.0833 27.0415 34.0833V35.5833ZM12.9998 36.2083C12.9998 36.5535 12.72 36.8333 12.3748 36.8333V38.3333C13.5485 38.3333 14.4998 37.3819 14.4998 36.2083H12.9998ZM12.3748 36.8333C12.0297 36.8333 11.7498 36.5535 11.7498 36.2083H10.2498C10.2498 37.3819 11.2012 38.3333 12.3748 38.3333V36.8333ZM11.7498 36.2083C11.7498 35.8632 12.0297 35.5833 12.3748 35.5833V34.0833C11.2012 34.0833 10.2498 35.0347 10.2498 36.2083H11.7498ZM12.3748 35.5833C12.72 35.5833 12.9998 35.8632 12.9998 36.2083H14.4998C14.4998 35.0347 13.5485 34.0833 12.3748 34.0833V35.5833ZM26.448 30.4167H13.5785V31.9167H26.448V30.4167ZM8.94157 26.6971L7.71935 21.1971L6.25507 21.5225L7.47729 27.0225L8.94157 26.6971ZM33.5344 10.8433L32.9637 14.5526L34.4463 14.7807L35.0169 11.0714L33.5344 10.8433ZM32.9637 14.5526L31.1427 26.3889L32.6253 26.617L34.4463 14.7807L32.9637 14.5526ZM12.3562 15.4167H33.705V13.9167H12.3562V15.4167ZM7.71935 21.1971C7.06014 18.2307 9.31743 15.4167 12.3562 15.4167V13.9167C8.35781 13.9167 5.38769 17.6193 6.25507 21.5225L7.71935 21.1971ZM13.5785 30.4167C11.3521 30.4167 9.42453 28.8704 8.94157 26.6971L7.47729 27.0225C8.11276 29.8821 10.6491 31.9167 13.5785 31.9167V30.4167ZM26.448 31.9167C29.5328 31.9167 32.1562 29.666 32.6253 26.617L31.1427 26.3889C30.7862 28.7061 28.7924 30.4167 26.448 30.4167V31.9167ZM38.4998 6.58334C36.0202 6.58334 33.9114 8.39251 33.5344 10.8433L35.0169 11.0714C35.2814 9.35234 36.7605 8.08334 38.4998 8.08334V6.58334Z" fill="#363538"/>
</svg>
