<svg width="57" height="46" viewBox="0 0 57 46" fill="none" xmlns="http://www.w3.org/2000/svg">
<path d="M10.8072 11.6655L11.1653 12.3245L10.8072 11.6655ZM12.0664 20.7663L12.6708 21.2103L12.6708 21.2103L12.0664 20.7663ZM12.0179 20.8325L12.6235 21.2748L12.6235 21.2748L12.0179 20.8325ZM10.9792 18.8032L11.4041 18.1851H11.4041L10.9792 18.8032ZM42.5563 37.2876L43.1322 37.7681L42.5563 37.2876ZM33.7118 37.1488L33.196 37.6932L33.7118 37.1488ZM50.1366 10.3889L49.3906 10.3113L50.1366 10.3889ZM44.1382 5.54808L44.0875 4.79979L44.1382 5.54808ZM21.3749 28.75L20.9044 29.3341L21.3749 28.75ZM26.0849 36.6876L25.8835 37.41L26.0849 36.6876ZM23.3005 32.8289L22.5593 32.9437L23.3005 32.8289ZM11.5499 24.9563L12.2395 24.6616L11.5499 24.9563ZM16.3348 27.2041L16.4099 26.4579L16.3348 27.2041ZM10.1822 37.8382L9.43291 37.8706C9.45063 38.28 9.7937 38.5994 10.2033 38.5879L10.1822 37.8382ZM16.138 36.8553L15.9194 36.1379L16.138 36.8553ZM10.9817 32.9749L10.2786 32.7137L10.9817 32.9749ZM16.6612 32.2311L16.2102 32.8304L16.6612 32.2311ZM49.3906 10.3113C48.9764 14.2916 47.6399 19.2004 44.6044 23.8941L45.8639 24.7087C49.0483 19.7848 50.4482 14.6412 50.8825 10.4665L49.3906 10.3113ZM44.638 24.7565C45.8514 26.3456 46.972 30.8247 41.9804 36.8071L43.1322 37.7681C48.4488 31.3962 47.5757 26.1322 45.8302 23.8462L44.638 24.7565ZM44.6044 23.8941C41.7567 28.2972 37.4036 32.5277 30.8751 35.6333L31.5195 36.9878C38.3048 33.76 42.8687 29.3399 45.8639 24.7087L44.6044 23.8941ZM34.2277 36.6043C33.7702 36.1709 33.2621 35.7778 32.7081 35.5657C32.1231 35.3416 31.4843 35.321 30.8555 35.643L31.5391 36.9781C31.7319 36.8794 31.9201 36.8701 32.1717 36.9665C32.4544 37.0747 32.7928 37.3112 33.196 37.6932L34.2277 36.6043ZM44.0875 4.79979C38.9745 5.1463 32.661 6.2636 26.6077 8.81328L27.19 10.1957C33.054 7.7257 39.1967 6.63468 44.1889 6.29636L44.0875 4.79979ZM27.2328 8.83292C24.5713 7.50942 18.2738 6.75452 10.4491 11.0065L11.1653 12.3245C18.6492 8.25772 24.4246 9.1117 26.5649 10.176L27.2328 8.83292ZM26.6077 8.81328C20.9426 11.1995 15.4811 14.851 11.4619 20.3223L12.6708 21.2103C16.4908 16.0102 21.7063 12.5054 27.19 10.1957L26.6077 8.81328ZM11.4619 20.3223C11.4453 20.3449 11.4288 20.3675 11.4122 20.3901L12.6235 21.2748C12.6393 21.2533 12.655 21.2318 12.6708 21.2103L11.4619 20.3223ZM10.5544 19.4212C11.0257 19.7452 11.298 20.0038 11.4166 20.1934C11.4692 20.2776 11.4683 20.3123 11.4681 20.3073C11.4677 20.2928 11.4764 20.3001 11.4459 20.3449L12.6868 21.1877C12.8742 20.9117 12.9781 20.5971 12.9673 20.2593C12.9569 19.9311 12.8401 19.6409 12.6886 19.3985C12.3988 18.9348 11.9097 18.5327 11.4041 18.1851L10.5544 19.4212ZM10.4491 11.0065C8.60086 12.0109 7.6806 13.5277 7.78585 15.1854C7.88772 16.7899 8.93948 18.3111 10.5544 19.4212L11.4041 18.1851C10.0328 17.2425 9.34647 16.0927 9.28283 15.0904C9.22257 14.1413 9.70939 13.1157 11.1653 12.3245L10.4491 11.0065ZM12.2395 24.6616C11.7646 23.5504 11.8445 22.3414 12.6235 21.2748L11.4122 20.3901C10.3033 21.9083 10.1895 23.6815 10.8602 25.251L12.2395 24.6616ZM41.9804 36.8071C40.1218 39.0347 36.5678 38.8214 34.2277 36.6043L33.196 37.6932C35.9431 40.2959 40.5411 40.8735 43.1322 37.7681L41.9804 36.8071ZM50.8825 10.4665C51.0594 8.7668 50.2952 7.26064 49.0287 6.23856C47.7683 5.2214 46.0044 4.66989 44.0875 4.79979L44.1889 6.29636C45.7662 6.18947 47.1481 6.6484 48.0867 7.40586C49.0192 8.15841 49.5071 9.19104 49.3906 10.3113L50.8825 10.4665ZM25.8835 37.41C27.6972 37.9155 29.7343 37.837 31.5195 36.9878L30.8751 35.6333C29.4557 36.3085 27.7955 36.3857 26.2862 35.9651L25.8835 37.41ZM24.0417 32.7141C23.8146 31.2482 23.2637 29.3083 21.8453 28.1659L20.9044 29.3341C21.8596 30.1034 22.343 31.5465 22.5593 32.9437L24.0417 32.7141ZM21.8453 28.1659C21.1391 27.597 20.2089 27.2207 19.2736 26.9634C18.3282 26.7033 17.3191 26.5494 16.4099 26.4579L16.2598 27.9504C17.1196 28.0369 18.0391 28.1795 18.8757 28.4097C19.7226 28.6426 20.4279 28.9503 20.9044 29.3341L21.8453 28.1659ZM26.2862 35.9651C24.8548 35.5662 24.2805 34.2564 24.0417 32.7141L22.5593 32.9437C22.8159 34.6006 23.5388 36.7566 25.8835 37.41L26.2862 35.9651ZM10.8602 25.251C11.2969 26.2728 12.2071 26.8911 13.1646 27.2737C14.1268 27.6583 15.2406 27.8479 16.2598 27.9504L16.4099 26.4579C15.4454 26.3609 14.4926 26.1891 13.7212 25.8808C12.945 25.5707 12.4546 25.1648 12.2395 24.6616L10.8602 25.251ZM10.2033 38.5879C11.5948 38.5487 14.0353 38.2802 16.3567 37.5727L15.9194 36.1379C13.7514 36.7986 11.4476 37.0522 10.1611 37.0885L10.2033 38.5879ZM10.9315 37.8057C10.8883 36.8079 11.0361 34.9821 11.6848 33.236L10.2786 32.7137C9.54923 34.6772 9.38258 36.7073 9.43291 37.8706L10.9315 37.8057ZM11.6848 33.236C11.9339 32.5652 12.5694 32.1399 13.462 32.0471C14.3596 31.9537 15.4023 32.2224 16.2102 32.8304L17.1122 31.6319C16.0015 30.796 14.5811 30.4226 13.3069 30.5551C12.0277 30.6881 10.7828 31.3566 10.2786 32.7137L11.6848 33.236ZM16.3567 37.5727C17.821 37.1265 18.697 36.1073 18.7875 34.8583C18.8741 33.6608 18.2205 32.4659 17.1122 31.6319L16.2102 32.8304C17.0205 33.4402 17.3324 34.1835 17.2914 34.75C17.2541 35.2652 16.9093 35.8362 15.9194 36.1379L16.3567 37.5727ZM33.9148 18.4362C33.1464 17.8161 32.8025 17.0422 32.8025 16.3093C32.8025 15.5764 33.1464 14.8025 33.9148 14.1824L32.9728 13.0151C31.8862 13.892 31.3025 15.0801 31.3025 16.3093C31.3025 17.5385 31.8862 18.7267 32.9728 19.6035L33.9148 18.4362ZM33.9148 14.1824C35.4949 12.9072 38.1101 12.9072 39.6903 14.1824L40.6323 13.0151C38.5025 11.2963 35.1026 11.2963 32.9728 13.0151L33.9148 14.1824ZM39.6903 14.1824C40.4587 14.8025 40.8025 15.5764 40.8025 16.3093C40.8025 17.0422 40.4587 17.8161 39.6903 18.4362L40.6323 19.6035C41.7189 18.7267 42.3025 17.5385 42.3025 16.3093C42.3025 15.0801 41.7189 13.892 40.6323 13.0151L39.6903 14.1824ZM39.6903 18.4362C38.1101 19.7115 35.4949 19.7115 33.9148 18.4362L32.9728 19.6035C35.1026 21.3224 38.5025 21.3224 40.6323 19.6035L39.6903 18.4362Z" fill="#EDC6B1"/>
</svg>
