<svg width="44" height="41" viewBox="0 0 44 41" fill="none" xmlns="http://www.w3.org/2000/svg">
<path d="M16.5183 18.6875C16.9325 18.6875 17.2683 18.3517 17.2683 17.9375C17.2683 17.5233 16.9325 17.1875 16.5183 17.1875V18.6875ZM16.5 17.1875C16.0858 17.1875 15.75 17.5233 15.75 17.9375C15.75 18.3517 16.0858 18.6875 16.5 18.6875V17.1875ZM27.5183 18.6875C27.9325 18.6875 28.2683 18.3517 28.2683 17.9375C28.2683 17.5233 27.9325 17.1875 27.5183 17.1875V18.6875ZM27.5 17.1875C27.0858 17.1875 26.75 17.5233 26.75 17.9375C26.75 18.3517 27.0858 18.6875 27.5 18.6875V17.1875ZM18.3333 26.5833C17.9191 26.5833 17.5833 26.9191 17.5833 27.3333C17.5833 27.7475 17.9191 28.0833 18.3333 28.0833V26.5833ZM25.6667 28.0833C26.0809 28.0833 26.4167 27.7475 26.4167 27.3333C26.4167 26.9191 26.0809 26.5833 25.6667 26.5833V28.0833ZM22 35.125C13.2508 35.125 6.25 28.5282 6.25 20.5H4.75C4.75 29.4546 12.5239 36.625 22 36.625V35.125ZM6.25 20.5C6.25 12.4718 13.2508 5.875 22 5.875V4.375C12.5239 4.375 4.75 11.5454 4.75 20.5H6.25ZM22 5.875C30.7492 5.875 37.75 12.4718 37.75 20.5H39.25C39.25 11.5454 31.4762 4.375 22 4.375V5.875ZM37.75 20.5C37.75 28.5282 30.7492 35.125 22 35.125V36.625C31.4762 36.625 39.25 29.4546 39.25 20.5H37.75ZM16.5183 17.1875H16.5V18.6875H16.5183V17.1875ZM27.5183 17.1875H27.5V18.6875H27.5183V17.1875ZM18.3333 28.0833H25.6667V26.5833H18.3333V28.0833Z" fill="#EDC6B1"/>
</svg>
